#!OML:ASF H:\Martial Arts Walks\Project 1\Capture day 1\Session 1\male.ASF
:FULLY-SPECIFIED
:DEGREES
1076
root 0.565436 12.7657 36.0464 15.8421 -24.1864 -17.5427
lowerback 8.05689 0.937431 6.07317
upperback -2.68703 2.20944 4.55459
thorax -7.33796 0.905684 1.08502
lowerneck -3.35959 6.15424 0.906159
upperneck 4.69947 8.03114 2.70938
head 1.9602 4.08419 0.91115
rclavicle 2.5345e-015 -1.78906e-014
rhumerus -78.9445 20.6275 -96.5819
rradius 108.918
rwrist -62.6473
rhand 3.06117 -20.6758
rfingers 7.12502
rthumb 28.519 -48.5212
lclavicle 2.5345e-015 -1.78906e-014
lhumerus 57.2402 17.3404 86.2783
lradius 15.5078
lwrist -67.6769
lhand -27.3095 38.1163
lfingers 7.12502
lthumb -0.718993 68.0949
rfemur 13.7294 -7.79114 12.0584
rtibia 31.2023
rfoot -21.8459 -31.0363
rtoes -30.6384
lfemur -79.0125 33.1417 -8.03301
ltibia 81.5104
lfoot -8.85774 -12.9694
ltoes 6.87236
1077
root 0.562878 12.7584 36.0554 15.8434 -24.2085 -17.5434
lowerback 8.04398 0.954191 6.06957
upperback -2.69649 2.23082 4.55223
thorax -7.34017 0.916136 1.08178
lowerneck -3.37099 6.13624 0.932364
upperneck 4.70116 8.00871 2.644
head 1.96682 4.07195 0.886621
rclavicle 2.41523e-014 -3.57812e-015
rhumerus -78.9621 20.5405 -96.5493
rradius 108.94
rwrist -62.6012
rhand 3.06427 -20.645
rfingers 7.12502
rthumb 28.522 -48.4899
lclavicle 2.41523e-014 -3.57812e-015
lhumerus 57.2043 17.3094 86.2635
lradius 15.5077
lwrist -67.6716
lhand -27.2426 38.0927
lfingers 7.12502
lthumb -0.654426 68.0714
rfemur 13.7505 -7.75784 12.0387
rtibia 31.2323
rfoot -21.885 -31.0359
rtoes -30.6556
lfemur -79.053 33.1883 -8.04242
ltibia 81.6167
lfoot -8.95109 -12.9613
ltoes 6.62369
1078
root 0.560313 12.7517 36.0643 15.8424 -24.2325 -17.5371
lowerback 8.03005 0.965292 6.05196
upperback -2.69605 2.24215 4.54808
thorax -7.33171 0.922622 1.08577
lowerneck -3.42508 6.12861 0.962355
upperneck 4.71959 7.99819 2.5911
head 1.98609 4.06636 0.867843
rclavicle 2.18663e-015 1.51076e-014
rhumerus -78.9609 20.477 -96.5281
rradius 108.959
rwrist -62.5531
rhand 3.07486 -20.5994
rfingers 7.12502
rthumb 28.5321 -48.4427
lclavicle 2.18663e-015 1.51076e-014
lhumerus 57.1915 17.2974 86.2491
lradius 15.5053
lwrist -67.6952
lhand -27.1981 38.0655
lfingers 7.12502
lthumb -0.61142 68.0443
rfemur 13.7706 -7.71671 12.0142
rtibia 31.2622
rfoot -21.9581 -31.0156
rtoes -30.6598
lfemur -79.0889 33.2279 -8.0577
ltibia 81.7183
lfoot -9.04411 -12.9368
ltoes 6.36393
1079
root 0.557458 12.746 36.0735 15.8318 -24.2715 -17.5233
lowerback 8.02163 0.974748 6.01263
upperback -2.68875 2.24889 4.54255
thorax -7.31978 0.928 1.10088
lowerneck -3.4853 6.13217 0.987543
upperneck 4.73608 8.00189 2.55679
head 2.00474 4.06824 0.856143
rclavicle 2.09718e-014 6.95746e-014
rhumerus -78.9538 20.4385 -96.5199
rradius 108.974
rwrist -62.5052
rhand 3.09757 -20.5399
rfingers 7.12502
rthumb 28.5538 -48.3795
lclavicle 2.09718e-014 6.95746e-014
lhumerus 57.1942 17.3083 86.2432
lradius 15.4965
lwrist -67.7336
lhand -27.182 38.0258
lfingers 7.12502
lthumb -0.595906 68.0047
rfemur 13.8019 -7.649 11.9846
rtibia 31.2741
rfoot -22.04 -30.9873
rtoes -30.6602
lfemur -79.0974 33.2695 -8.07044
ltibia 81.8132
lfoot -9.14476 -12.8944
ltoes 6.07752
1080
root 0.555026 12.7403 36.0828 15.8338 -24.289 -17.506
lowerback 7.99114 0.977571 5.98649
upperback -2.68735 2.24635 4.53508
thorax -7.30114 0.928257 1.10829
lowerneck -3.53033 6.13813 1.00119
upperneck 4.74544 8.00876 2.54373
head 2.01694 4.07189 0.852154
rclavicle -2.72335e-014 -8.34896e-015
rhumerus -78.9539 20.4105 -96.517
rradius 108.989
rwrist -62.4572
rhand 3.11571 -20.489
rfingers 7.12502
rthumb 28.5711 -48.3257
lclavicle -2.72335e-014 -8.34896e-015
lhumerus 57.2085 17.3293 86.2657
lradius 15.4773
lwrist -67.7854
lhand -27.1891 37.9872
lfingers 7.12502
lthumb -0.602697 67.9661
rfemur 13.8441 -7.58728 11.9592
rtibia 31.253
rfoot -22.1259 -30.9515
rtoes -30.662
lfemur -79.1303 33.2839 -8.09166
ltibia 81.9128
lfoot -9.24448 -12.8399
ltoes 5.75378
1081
root 0.552948 12.7341 36.0925 15.8596 -24.2836 -17.5123
lowerback 7.94011 0.965035 5.98832
upperback -2.68599 2.22462 4.53449
thorax -7.27053 0.918193 1.11041
lowerneck -3.57944 6.15622 1.00843
upperneck 4.75055 8.03117 2.5511
head 2.02724 4.08367 0.855993
rclavicle 5.04913e-014 -4.25399e-014
rhumerus -78.945 20.4202 -96.5289
rradius 108.997
rwrist -62.4128
rhand 3.1302 -20.4475
rfingers 7.12502
rthumb 28.585 -48.2818
lclavicle 5.04913e-014 -4.25399e-014
lhumerus 57.2433 17.3821 86.2924
lradius 15.4477
lwrist -67.8366
lhand -27.2057 37.9562
lfingers 7.12502
lthumb -0.618761 67.935
rfemur 13.8982 -7.52815 11.9647
rtibia 31.193
rfoot -22.1892 -30.9265
rtoes -30.6817
lfemur -79.194 33.284 -8.09573
ltibia 82.0213
lfoot -9.34201 -12.7837
ltoes 5.40165
1082
root 0.551036 12.7275 36.1019 15.8992 -24.2555 -17.5235
lowerback 7.87504 0.947245 6.00563
upperback -2.69574 2.19714 4.53661
thorax -7.24353 0.904457 1.10785
lowerneck -3.59282 6.17148 1.00548
upperneck 4.74086 8.0508 2.56895
head 2.02541 4.09385 0.862787
rclavicle -1.8487e-014 -1.39149e-014
rhumerus -78.9484 20.4371 -96.5427
rradius 109.005
rwrist -62.3701
rhand 3.13226 -20.4157
rfingers 7.12502
rthumb 28.5869 -48.2498
lclavicle -1.8487e-014 -1.39149e-014
lhumerus 57.271 17.4298 86.3212
lradius 15.4129
lwrist -67.8784
lhand -27.2232 37.9266
lfingers 7.12502
lthumb -0.635654 67.9054
rfemur 13.9653 -7.48134 11.9832
rtibia 31.0971
rfoot -22.2106 -30.9279
rtoes -30.7295
lfemur -79.2858 33.2654 -8.09989
ltibia 82.1369
lfoot -9.43251 -12.7312
ltoes 5.05336
1083
root 0.549465 12.7203 36.1102 15.9452 -24.2153 -17.5386
lowerback 7.81425 0.926472 6.03144
upperback -2.71432 2.16776 4.54092
thorax -7.22842 0.889094 1.10313
lowerneck -3.57813 6.18272 0.994369
upperneck 4.71989 8.0661 2.58981
head 2.01441 4.10158 0.870251
rclavicle -9.159e-014 -5.96354e-015
rhumerus -78.9585 20.4594 -96.5565
rradius 109.013
rwrist -62.329
rhand 3.12033 -20.4075
rfingers 7.12502
rthumb 28.5755 -48.2435
lclavicle -9.159e-014 -5.96354e-015
lhumerus 57.2837 17.4646 86.3277
lradius 15.3831
lwrist -67.9049
lhand -27.2271 37.891
lfingers 7.12502
lthumb -0.639443 67.8698
rfemur 14.0394 -7.43891 12.013
rtibia 30.977
rfoot -22.1901 -30.9601
rtoes -30.7919
lfemur -79.3967 33.2367 -8.10345
ltibia 82.2539
lfoot -9.50832 -12.6858
ltoes 4.75313
1084
root 0.548065 12.7128 36.1178 15.9963 -24.1762 -17.5559
lowerback 7.75511 0.909269 6.05941
upperback -2.74123 2.1443 4.54752
thorax -7.22314 0.876279 1.09885
lowerneck -3.54196 6.18557 0.97996
upperneck 4.69835 8.07111 2.60453
head 1.99959 4.10385 0.875175
rclavicle 7.55382e-015 -4.33351e-014
rhumerus -78.9777 20.4818 -96.5668
rradius 109.023
rwrist -62.2966
rhand 3.09675 -20.4147
rfingers 7.12502
rthumb 28.553 -48.2544
lclavicle 7.55382e-015 -4.33351e-014
lhumerus 57.269 17.472 86.2946
lradius 15.3648
lwrist -67.9101
lhand -27.2096 37.8504
lfingers 7.12502
lthumb -0.622497 67.8292
rfemur 14.1098 -7.39441 12.0495
rtibia 30.8496
rfoot -22.1326 -31.0281
rtoes -30.8628
lfemur -79.5172 33.2117 -8.10826
ltibia 82.3678
lfoot -9.56955 -12.649
ltoes 4.50374
1085
root 0.546728 12.7061 36.1242 16.0355 -24.1531 -17.5657
lowerback 7.72456 0.896154 6.06549
upperback -2.76935 2.12695 4.55439
thorax -7.23624 0.867079 1.10577
lowerneck -3.50895 6.18619 0.966235
upperneck 4.68496 8.07311 2.6143
head 1.98827 4.10458 0.878739
rclavicle -5.06901e-015 5.28767e-014
rhumerus -78.9938 20.5095 -96.5777
rradius 109.032
rwrist -62.2707
rhand 3.07113 -20.43
rfingers 7.12502
rthumb 28.5285 -48.2739
lclavicle -5.06901e-015 5.28767e-014
lhumerus 57.2284 17.4568 86.2068
lradius 15.3655
lwrist -67.888
lhand -27.1729 37.8045
lfingers 7.12502
lthumb -0.587074 67.7834
rfemur 14.1734 -7.33953 12.0823
rtibia 30.7315
rfoot -22.0576 -31.1182
rtoes -30.9215
lfemur -79.6155 33.1964 -8.1137
ltibia 82.4675
lfoot -9.61593 -12.6192
ltoes 4.32795
1086
root 0.545322 12.701 36.1301 16.0617 -24.1559 -17.5682
lowerback 7.71513 0.889978 6.04828
upperback -2.79526 2.11836 4.56094
thorax -7.25966 0.863068 1.1238
lowerneck -3.48356 6.18472 0.957702
upperneck 4.68422 8.07208 2.61459
head 1.98312 4.10379 0.879125
rclavicle 2.61899e-014 1.19271e-014
rhumerus -79.0067 20.5423 -96.589
rradius 109.036
rwrist -62.2527
rhand 3.04252 -20.4568
rfingers 7.12502
rthumb 28.5012 -48.3053
lclavicle 2.61899e-014 1.19271e-014
lhumerus 57.1693 17.4289 86.0852
lradius 15.3821
lwrist -67.8508
lhand -27.1237 37.7476
lfingers 7.12502
lthumb -0.539585 67.7266
rfemur 14.2221 -7.26611 12.1077
rtibia 30.6375
rfoot -22.0062 -31.2036
rtoes -30.9512
lfemur -79.6775 33.1979 -8.117
ltibia 82.5519
lfoot -9.65761 -12.5898
ltoes 4.187
1087
root 0.544309 12.6968 36.136 16.078 -24.1804 -17.5788
lowerback 7.72505 0.885114 6.02785
upperback -2.814 2.1127 4.57041
thorax -7.28672 0.860697 1.14601
lowerneck -3.47054 6.18895 0.95211
upperneck 4.69395 8.07822 2.61197
head 1.98378 4.10669 0.87913
rclavicle -8.44835e-016 1.82882e-014
rhumerus -79.0118 20.591 -96.6055
rradius 109.034
rwrist -62.2442
rhand 3.02302 -20.4751
rfingers 7.12502
rthumb 28.4826 -48.3266
lclavicle -8.44835e-016 1.82882e-014
lhumerus 57.1016 17.4059 85.938
lradius 15.4084
lwrist -67.7935
lhand -27.0739 37.6927
lfingers 7.12502
lthumb -0.491429 67.6719
rfemur 14.2562 -7.19125 12.1279
rtibia 30.579
rfoot -21.973 -31.2733
rtoes -30.9631
lfemur -79.7077 33.22 -8.10497
ltibia 82.6283
lfoot -9.70012 -12.5623
ltoes 4.09152
1088
root 0.543626 12.6927 36.1421 16.0879 -24.2235 -17.5945
lowerback 7.73894 0.890164 6.01359
upperback -2.83037 2.1211 4.57918
thorax -7.31303 0.864953 1.16205
lowerneck -3.44418 6.1894 0.94212
upperneck 4.70254 8.07975 2.61027
head 1.9815 4.10716 0.879433
rclavicle 4.92986e-014 -4.05521e-014
rhumerus -79.019 20.6262 -96.6145
rradius 109.026
rwrist -62.2421
rhand 3.01306 -20.4848
rfingers 7.12502
rthumb 28.473 -48.338
lclavicle 4.92986e-014 -4.05521e-014
lhumerus 57.0265 17.371 85.7989
lradius 15.4342
lwrist -67.7223
lhand -27.0352 37.6436
lfingers 7.12502
lthumb -0.454038 67.6228
rfemur 14.2731 -7.11795 12.1386
rtibia 30.5575
rfoot -21.9771 -31.3112
rtoes -30.9584
lfemur -79.7193 33.2635 -8.08655
ltibia 82.7045
lfoot -9.74768 -12.5398
ltoes 4.04404
1089
root 0.543453 12.688 36.1485 16.1089 -24.2691 -17.6289
lowerback 7.74212 0.894181 6.01964
upperback -2.83932 2.12875 4.59067
thorax -7.32469 0.868305 1.16987
lowerneck -3.43885 6.19363 0.93579
upperneck 4.71901 8.08539 2.61262
head 1.98551 4.11001 0.88159
rclavicle -6.26172e-015 5.96354e-015
rhumerus -79.0093 20.67 -96.6251
rradius 109.006
rwrist -62.2475
rhand 3.02173 -20.4761
rfingers 7.12502
rthumb 28.4813 -48.3279
lclavicle -6.26172e-015 5.96354e-015
lhumerus 56.9752 17.3599 85.6932
lradius 15.451
lwrist -67.6725
lhand -26.9997 37.6144
lfingers 7.12502
lthumb -0.419795 67.5937
rfemur 14.2674 -7.06619 12.1498
rtibia 30.5696
rfoot -22.0139 -31.3093
rtoes -30.9411
lfemur -79.7402 33.322 -8.05715
ltibia 82.7868
lfoot -9.79929 -12.5244
ltoes 4.03229
1090
root 0.543762 12.683 36.1553 16.1367 -24.3044 -17.6651
lowerback 7.72701 0.899267 6.04423
upperback -2.85175 2.13821 4.60188
thorax -7.3289 0.871777 1.16712
lowerneck -3.41174 6.19278 0.922786
upperneck 4.72893 8.08496 2.61802
head 1.98312 4.10964 0.884535
rclavicle 3.46879e-014 -1.47101e-014
rhumerus -79.007 20.7031 -96.6295
rradius 108.981
rwrist -62.2595
rhand 3.04108 -20.4582
rfingers 7.12502
rthumb 28.4998 -48.3069
lclavicle 3.46879e-014 -1.47101e-014
lhumerus 56.9349 17.3606 85.6441
lradius 15.4521
lwrist -67.6547
lhand -26.9666 37.6
lfingers 7.12502
lthumb -0.387843 67.5794
rfemur 14.2489 -7.05329 12.1452
rtibia 30.6067
rfoot -22.0723 -31.2746
rtoes -30.9305
lfemur -79.7747 33.3782 -8.03423
ltibia 82.8748
lfoot -9.85998 -12.5151
ltoes 4.02578
